<mxfile host="Electron" modified="2024-02-04T16:39:10.284Z" agent="Mozilla/5.0 (X11; Linux x86_64) AppleWebKit/537.36 (KHTML, like Gecko) draw.io/22.1.21 Chrome/120.0.6099.109 Electron/28.1.0 Safari/537.36" etag="eWJE3BzXcSb7jVGqoE7W" version="22.1.21" type="device">
  <diagram name="Page-1" id="ew7vi9b7o_5ddHdVxSJt">
    <mxGraphModel dx="139" dy="626" grid="1" gridSize="10" guides="1" tooltips="1" connect="1" arrows="1" fold="1" page="1" pageScale="1" pageWidth="850" pageHeight="1100" math="0" shadow="0">
      <root>
        <mxCell id="0" />
        <mxCell id="1" parent="0" />
        <mxCell id="ZW6nNcWDt0XmGfBWngsh-2" value="" style="group" vertex="1" connectable="0" parent="1">
          <mxGeometry x="859.9999999999999" y="10" width="370.0000000000001" height="291" as="geometry" />
        </mxCell>
        <mxCell id="0yMUKXwJDYe7jOVYLK8S-43" value="" style="rounded=0;whiteSpace=wrap;html=1;strokeColor=#d88f8c;strokeWidth=3;align=center;verticalAlign=top;fontFamily=Helvetica;fontSize=12;fontColor=default;fillColor=#242434;" parent="ZW6nNcWDt0XmGfBWngsh-2" vertex="1">
          <mxGeometry width="370" height="291" as="geometry" />
        </mxCell>
        <mxCell id="0yMUKXwJDYe7jOVYLK8S-42" value="" style="rounded=0;whiteSpace=wrap;html=1;strokeColor=#d88f8c;strokeWidth=3;align=center;verticalAlign=top;fontFamily=Helvetica;fontSize=12;fontColor=default;fillColor=#41415E;" parent="ZW6nNcWDt0XmGfBWngsh-2" vertex="1">
          <mxGeometry x="20" y="21" width="330" height="180" as="geometry" />
        </mxCell>
        <mxCell id="0yMUKXwJDYe7jOVYLK8S-7" value="" style="verticalLabelPosition=bottom;verticalAlign=top;html=1;shape=mxgraph.basic.orthogonal_triangle;rotation=90;container=0;strokeColor=#D88F8C;strokeWidth=3;fillColor=#242434;" parent="ZW6nNcWDt0XmGfBWngsh-2" vertex="1">
          <mxGeometry x="230.0000000000001" y="51.710000000000036" width="90" height="128.57" as="geometry" />
        </mxCell>
        <mxCell id="0yMUKXwJDYe7jOVYLK8S-25" value="" style="verticalLabelPosition=bottom;verticalAlign=top;html=1;shape=mxgraph.basic.orthogonal_triangle;rotation=-90;container=0;strokeColor=#D88F8C;strokeWidth=3;fillColor=#242434;" parent="ZW6nNcWDt0XmGfBWngsh-2" vertex="1">
          <mxGeometry x="230.0000000000001" y="91.71500000000003" width="90" height="128.57" as="geometry" />
        </mxCell>
        <mxCell id="0yMUKXwJDYe7jOVYLK8S-17" style="edgeStyle=orthogonalEdgeStyle;shape=connector;curved=0;rounded=1;orthogonalLoop=1;jettySize=auto;html=1;labelBackgroundColor=default;strokeColor=#D88F8C;strokeWidth=3;align=center;verticalAlign=middle;fontFamily=Helvetica;fontSize=11;fontColor=default;startArrow=none;startFill=0;endArrow=openThin;endFill=0;" parent="ZW6nNcWDt0XmGfBWngsh-2" source="0yMUKXwJDYe7jOVYLK8S-2" target="0yMUKXwJDYe7jOVYLK8S-7" edge="1">
          <mxGeometry relative="1" as="geometry" />
        </mxCell>
        <mxCell id="0yMUKXwJDYe7jOVYLK8S-8" value="Plan" style="text;html=1;strokeColor=none;fillColor=none;align=center;verticalAlign=middle;whiteSpace=wrap;rounded=0;fontColor=#ffffff;strokeWidth=3;" parent="ZW6nNcWDt0XmGfBWngsh-2" vertex="1">
          <mxGeometry x="210.0000000000001" y="71" width="50" height="30" as="geometry" />
        </mxCell>
        <mxCell id="0yMUKXwJDYe7jOVYLK8S-27" value="Execute" style="text;html=1;strokeColor=none;fillColor=none;align=center;verticalAlign=middle;whiteSpace=wrap;rounded=0;fontColor=#ffffff;strokeWidth=3;" parent="ZW6nNcWDt0XmGfBWngsh-2" vertex="1">
          <mxGeometry x="280.0000000000001" y="170" width="60" height="30" as="geometry" />
        </mxCell>
        <mxCell id="0yMUKXwJDYe7jOVYLK8S-31" style="edgeStyle=orthogonalEdgeStyle;shape=connector;curved=0;rounded=1;orthogonalLoop=1;jettySize=auto;html=1;exitX=0.5;exitY=0.5;exitDx=0;exitDy=0;exitPerimeter=0;entryX=0.5;entryY=0.5;entryDx=0;entryDy=0;entryPerimeter=0;labelBackgroundColor=default;strokeColor=#D88F8C;strokeWidth=3;align=center;verticalAlign=middle;fontFamily=Helvetica;fontSize=11;fontColor=default;startArrow=none;startFill=0;endArrow=openThin;endFill=0;" parent="ZW6nNcWDt0XmGfBWngsh-2" source="0yMUKXwJDYe7jOVYLK8S-7" target="0yMUKXwJDYe7jOVYLK8S-25" edge="1">
          <mxGeometry relative="1" as="geometry">
            <Array as="points">
              <mxPoint x="275.0000000000001" y="140" />
              <mxPoint x="275.0000000000001" y="140" />
            </Array>
          </mxGeometry>
        </mxCell>
        <mxCell id="0yMUKXwJDYe7jOVYLK8S-18" value="" style="group;rotation=-180;" parent="ZW6nNcWDt0XmGfBWngsh-2" vertex="1" connectable="0">
          <mxGeometry x="30" y="111" width="128.57000000000016" height="90" as="geometry" />
        </mxCell>
        <mxCell id="0yMUKXwJDYe7jOVYLK8S-19" value="" style="verticalLabelPosition=bottom;verticalAlign=top;html=1;shape=mxgraph.basic.orthogonal_triangle;rotation=-360;container=0;strokeColor=#D88F8C;strokeWidth=3;fillColor=#242434;" parent="0yMUKXwJDYe7jOVYLK8S-18" vertex="1">
          <mxGeometry width="128.57" height="90" as="geometry" />
        </mxCell>
        <mxCell id="0yMUKXwJDYe7jOVYLK8S-21" value="Monitor" style="text;html=1;strokeColor=none;fillColor=none;align=center;verticalAlign=middle;whiteSpace=wrap;rounded=0;fontColor=#FFFFFF;strokeWidth=3;" parent="0yMUKXwJDYe7jOVYLK8S-18" vertex="1">
          <mxGeometry x="1.1368683772161603e-13" y="60" width="60" height="30" as="geometry" />
        </mxCell>
        <mxCell id="0yMUKXwJDYe7jOVYLK8S-2" value="" style="verticalLabelPosition=bottom;verticalAlign=top;html=1;shape=mxgraph.basic.orthogonal_triangle;rotation=-180;container=0;strokeColor=#D88F8C;strokeWidth=3;fillColor=#242434;" parent="ZW6nNcWDt0XmGfBWngsh-2" vertex="1">
          <mxGeometry x="30" y="71" width="128.57" height="90" as="geometry" />
        </mxCell>
        <mxCell id="0yMUKXwJDYe7jOVYLK8S-9" value="" style="verticalLabelPosition=middle;verticalAlign=middle;html=1;shape=trapezoid;perimeter=trapezoidPerimeter;whiteSpace=wrap;size=0.23;arcSize=10;flipV=1;labelPosition=center;align=center;rotation=-180;strokeColor=#D88F8C;strokeWidth=3;fillColor=#242434;" parent="ZW6nNcWDt0XmGfBWngsh-2" vertex="1">
          <mxGeometry x="110.00000000000011" y="151" width="150" height="50" as="geometry" />
        </mxCell>
        <mxCell id="0yMUKXwJDYe7jOVYLK8S-32" value="Knowledge" style="text;html=1;strokeColor=none;fillColor=none;align=center;verticalAlign=middle;whiteSpace=wrap;rounded=0;fontColor=#ffffff;strokeWidth=3;" parent="ZW6nNcWDt0XmGfBWngsh-2" vertex="1">
          <mxGeometry x="155.0000000000001" y="160" width="60" height="30" as="geometry" />
        </mxCell>
        <mxCell id="0yMUKXwJDYe7jOVYLK8S-36" style="edgeStyle=orthogonalEdgeStyle;shape=connector;curved=0;rounded=1;orthogonalLoop=1;jettySize=auto;html=1;exitX=0;exitY=0;exitDx=0;exitDy=0;entryX=0.75;entryY=1;entryDx=0;entryDy=0;labelBackgroundColor=default;strokeColor=#D88F8C;strokeWidth=3;align=center;verticalAlign=middle;fontFamily=Helvetica;fontSize=12;fontColor=default;startArrow=none;startFill=0;endArrow=openThin;endFill=0;" parent="ZW6nNcWDt0XmGfBWngsh-2" source="0yMUKXwJDYe7jOVYLK8S-34" target="0yMUKXwJDYe7jOVYLK8S-21" edge="1">
          <mxGeometry relative="1" as="geometry" />
        </mxCell>
        <mxCell id="0yMUKXwJDYe7jOVYLK8S-39" style="edgeStyle=orthogonalEdgeStyle;shape=connector;curved=0;rounded=1;orthogonalLoop=1;jettySize=auto;html=1;exitX=0.5;exitY=1;exitDx=0;exitDy=0;labelBackgroundColor=default;strokeColor=#D88F8C;strokeWidth=3;align=center;verticalAlign=middle;fontFamily=Helvetica;fontSize=12;fontColor=default;startArrow=none;startFill=0;endArrow=openThin;endFill=0;" parent="ZW6nNcWDt0XmGfBWngsh-2" source="0yMUKXwJDYe7jOVYLK8S-27" edge="1">
          <mxGeometry relative="1" as="geometry">
            <mxPoint x="310.0000000000001" y="240" as="targetPoint" />
          </mxGeometry>
        </mxCell>
        <mxCell id="0yMUKXwJDYe7jOVYLK8S-41" value="Autonomic Manager" style="text;html=1;strokeColor=none;fillColor=none;align=center;verticalAlign=middle;whiteSpace=wrap;rounded=0;fontColor=#FFFFFF;strokeWidth=3;" parent="ZW6nNcWDt0XmGfBWngsh-2" vertex="1">
          <mxGeometry x="122.50000000000011" y="30" width="125" height="30" as="geometry" />
        </mxCell>
        <mxCell id="0yMUKXwJDYe7jOVYLK8S-3" value="Analyze" style="text;html=1;strokeColor=none;fillColor=none;align=center;verticalAlign=middle;whiteSpace=wrap;rounded=0;fontColor=#FFFFFF;strokeWidth=3;" parent="ZW6nNcWDt0XmGfBWngsh-2" vertex="1">
          <mxGeometry x="98.57000000000016" y="71" width="60" height="30" as="geometry" />
        </mxCell>
        <mxCell id="0yMUKXwJDYe7jOVYLK8S-29" style="edgeStyle=orthogonalEdgeStyle;shape=connector;curved=0;rounded=1;orthogonalLoop=1;jettySize=auto;html=1;exitX=0.5;exitY=0.5;exitDx=0;exitDy=0;exitPerimeter=0;entryX=0.5;entryY=0.5;entryDx=0;entryDy=0;entryPerimeter=0;labelBackgroundColor=default;strokeColor=#D88F8C;strokeWidth=3;align=center;verticalAlign=middle;fontFamily=Helvetica;fontSize=11;fontColor=default;startArrow=none;startFill=0;endArrow=openThin;endFill=0;" parent="ZW6nNcWDt0XmGfBWngsh-2" source="0yMUKXwJDYe7jOVYLK8S-19" target="0yMUKXwJDYe7jOVYLK8S-2" edge="1">
          <mxGeometry relative="1" as="geometry">
            <Array as="points">
              <mxPoint x="94.00000000000011" y="140" />
              <mxPoint x="94.00000000000011" y="140" />
            </Array>
          </mxGeometry>
        </mxCell>
        <mxCell id="0yMUKXwJDYe7jOVYLK8S-34" value="" style="ellipse;whiteSpace=wrap;html=1;strokeColor=#d88f8c;strokeWidth=3;align=center;verticalAlign=top;fontFamily=Helvetica;fontSize=12;fontColor=default;fillColor=#242434;" parent="ZW6nNcWDt0XmGfBWngsh-2" vertex="1">
          <mxGeometry x="30.000000000000114" y="230" width="310" height="50" as="geometry" />
        </mxCell>
        <mxCell id="0yMUKXwJDYe7jOVYLK8S-35" value="Managed element" style="text;html=1;strokeColor=none;fillColor=none;align=center;verticalAlign=middle;whiteSpace=wrap;rounded=0;fontColor=#ffffff;strokeWidth=3;" parent="ZW6nNcWDt0XmGfBWngsh-2" vertex="1">
          <mxGeometry x="134.2850000000002" y="240" width="101.43" height="30" as="geometry" />
        </mxCell>
      </root>
    </mxGraphModel>
  </diagram>
</mxfile>
